<?xml version="1.0" standalone="no"?>
<!DOCTYPE svg PUBLIC "-//W3C//DTD SVG 20010904//EN"
 "http://www.w3.org/TR/2001/REC-SVG-20010904/DTD/svg10.dtd">
<svg version="1.0" xmlns="http://www.w3.org/2000/svg"
 width="512.000000pt" height="512.000000pt" viewBox="0 0 512.000000 512.000000"
 preserveAspectRatio="xMidYMid meet">
<metadata>
Created by potrace 1.14, written by Peter Selinger 2001-2017
</metadata>
<g transform="translate(0.000000,512.000000) scale(0.100000,-0.100000)"
fill="#000000" stroke="none">
<path d="M2370 4904 c-139 -13 -292 -40 -425 -74 -940 -240 -1628 -1012 -1771
-1985 -13 -84 -18 -181 -18 -325 0 -240 16 -370 74 -595 240 -940 1012 -1628
1985 -1771 84 -13 181 -18 325 -18 240 0 370 16 595 74 940 240 1628 1012
1771 1985 13 84 18 181 18 325 0 240 -16 370 -74 595 -67 264 -172 500 -320
724 -375 567 -982 950 -1660 1046 -112 16 -411 27 -500 19z m530 -194 c644
-95 1206 -454 1571 -1004 348 -524 459 -1184 304 -1801 -204 -811 -839 -1446
-1650 -1650 -193 -48 -351 -68 -555 -68 -771 0 -1470 378 -1901 1027 -348 524
-459 1184 -304 1801 222 879 949 1546 1844 1691 227 37 458 38 691 4z"/>
<path d="M2195 3711 c-88 -26 -143 -58 -165 -94 -27 -43 -25 -58 8 -90 35 -33
103 -37 154 -8 22 13 71 22 151 30 107 10 124 10 195 -8 212 -55 371 -126 476
-212 68 -56 83 -63 126 -66 27 -1 52 2 56 8 10 17 -58 107 -148 195 -113 110
-276 204 -414 239 -124 32 -342 35 -439 6z"/>
<path d="M3555 3390 c-10 -11 -35 -25 -56 -31 -44 -14 -62 -42 -57 -95 l3 -39
51 -3 c36 -2 54 1 64 13 10 12 37 15 134 15 112 0 129 -3 218 -34 141 -49 273
-129 328 -198 24 -31 76 -36 85 -8 19 61 -212 289 -338 333 -17 6 -43 16 -57
24 -14 7 -35 13 -48 13 -12 0 -39 7 -59 15 -24 10 -70 15 -143 15 -94 0 -109
-2 -125 -20z"/>
<path d="M1758 2934 c-82 -19 -124 -44 -193 -111 -103 -100 -157 -253 -128
-362 5 -20 10 -22 41 -18 19 4 36 8 39 11 2 2 8 34 14 71 11 78 45 145 74 145
12 0 60 -40 120 -99 197 -195 234 -220 520 -347 192 -86 428 -151 682 -189
135 -20 412 -20 518 0 283 53 634 196 648 263 3 17 -1 24 -19 28 -14 4 -31 1
-39 -6 -8 -6 -19 -9 -24 -5 -6 3 -27 -3 -48 -13 -38 -19 -212 -73 -348 -108
-102 -25 -574 -22 -756 6 -150 23 -379 95 -459 144 -30 19 -96 54 -145 79
-233 116 -515 389 -446 431 5 3 61 16 125 28 64 12 116 25 116 28 0 13 -122
40 -177 39 -32 0 -84 -7 -115 -15z"/>
</g>
</svg>
